<svg xmlns="http://www.w3.org/2000/svg">
  <defs>
    <symbol id="success" viewBox="0 0 50 50">
      <path fill="#27AE60" fill-rule="evenodd" d="M4.167 25.001c0-11.506 9.328-20.833 20.834-20.833S45.834 13.495 45.834 25c0 11.504-9.327 20.833-20.833 20.833-11.506 0-20.834-9.329-20.834-20.833Zm20.166 8.11L35.5 19.612c.82-.988.611-2.398-.462-3.152-1.078-.754-2.61-.56-3.427.427l-9.25 11.18-3.99-4.693c-.832-.981-2.372-1.152-3.433-.385-1.063.765-1.249 2.18-.418 3.157l5.945 6.99a2.53 2.53 0 0 0 1.924.864h.017c.758-.005 1.469-.333 1.928-.889Z" clip-rule="evenodd"/>
    </symbol>
    <symbol id="error" viewBox="0 0 50 50">
      <path fill="#AE2727" d="M46 25c0 11.598-9.402 21-21 21S4 36.598 4 25 13.402 4 25 4s21 9.402 21 21Z"/>
      <path fill="#fff" fill-rule="evenodd" d="M16.6 33.6c-.8-.8-.8-2 0-2.8l14.1-14.2c.8-.8 2-.8 2.8 0 .8.8.8 2 0 2.8L19.4 33.6c-.8.7-2 .7-2.8 0Z" clip-rule="evenodd"/>
      <path fill="#fff" fill-rule="evenodd" d="M33.6 33.6c-.8.8-2 .8-2.8 0L16.6 19.4c-.8-.8-.8-2 0-2.8.8-.8 2-.8 2.8 0l14.1 14.1c.8.8.8 2.1.1 2.9Z" clip-rule="evenodd"/>
    </symbol>
  </defs>
</svg>
