<svg xmlns="http://www.w3.org/2000/svg" viewBox="0 0 269 230">
  <path fill="#F9F9F9" d="M124.085.018C75.992-.715 39.83 20.954 32.482 28.901c-2.338 3.209-9.593 11.92-5.435 26.59C31.788 72.219 37.378 72.912 23 88.958c-16.129 17.999-38.11 52.722-8.052 96.275 30.058 43.553 103.901 46.863 142.852 44.011 37.573-2.751 83.832-20.723 101.696-43.094 19.037-23.84 5.491-61.463-6.087-79.313-11.596-17.88 14.604-54.097-8.941-73.81C220.922 13.313 184.201.935 124.085.018Z"/>
  <g fill="#303030">
    <path d="M131.3 142.715c1.313-.141 2.47-.261 3.613-.395 3.21-.381 6.42-.403 9.638-.179 4.532.321 9.011 1.03 13.438 2.038.127.03.262.052.389.082.321.089.47-.038.56-.359.238-.836.522-1.657.791-2.486 2.247-6.883 6.809-11.624 13.349-14.603 4.24-1.933 8.66-2.568 13.266-2.254.866.06 1.718.179 2.613.358.105-1.083.232-2.128.299-3.173.291-4.487 1.545-8.705 3.472-12.744a34.99 34.99 0 0 0 1.269-2.986c1.239-3.427 1.157-6.84-.179-10.199-.807-2.023-2.218-3.635-3.778-5.114-2.546-2.404-5.681-3.68-8.951-4.688-2.711-.836-5.503-1.232-8.302-1.568-2.643-.314-5.286-.642-7.937-.888a96.92 96.92 0 0 0-6.233-.381 232.335 232.335 0 0 0-14.245.007c-3.248.097-6.488.329-9.624 1.247-2.389.702-4.703 1.605-6.577 3.322-3.367 3.069-5.032 6.884-4.935 11.46.075 3.524.978 6.876 2.053 10.198.71 2.21 1.56 4.368 2.053 6.645.344 1.598.657 3.203.74 4.838.014.261.014.53-.008.791-.03.359-.224.59-.597.627-.366.038-.642-.164-.71-.582-.097-.627-.119-1.262-.216-1.889-.418-2.747-1.15-5.413-2.076-8.026-1.075-3.038-2-6.114-2.508-9.302-.724-4.532-.172-8.832 2.419-12.744 1.627-2.464 3.77-4.293 6.458-5.532 3.016-1.389 6.189-2.076 9.474-2.337 6.346-.507 12.707-.41 19.06-.216 5.913.179 11.774.94 17.619 1.806 3.382.5 6.622 1.546 9.691 3.046 3.106 1.523 5.599 3.77 7.481 6.652 1.821 2.793 2.433 5.913 2.194 9.22-.149 2.166-.836 4.174-1.717 6.138-.507 1.127-.993 2.27-1.493 3.404-1.471 3.3-2.083 6.786-2.389 10.355-.075.866-.112 1.74-.194 2.605-.037.404.097.62.485.769.836.321 1.605.792 2.36 1.277 2.613 1.68 4.83 5.764 3.113 10.071a13.9 13.9 0 0 1-2.688 4.263c-.254.284-.403.59-.523.949-1.022 3.075-2.075 6.144-3.105 9.212-1.493 4.45-3.076 8.87-4.271 13.409a126.36 126.36 0 0 0-1.792 7.943c-.53 2.763-.403 5.495.165 8.243.59 2.867 1.052 5.756 1.209 8.69.038.761.038 1.53-.157 2.284-.216.829-.567 1.568-1.485 1.77-.926.209-1.635-.254-2.218-.926-.433-.508-.709-1.105-.925-1.732-.68-1.926-1.008-3.927-1.382-5.92-.134-.725-.261-1.456-.522-2.151-.306-.828-.672-1.015-1.523-.791-.59.157-1.135.433-1.658.739-2.949 1.702-6.01 3.173-9.16 4.465-.217.089-.433.201-.679.194-.292-.008-.501-.135-.62-.403-.12-.277-.045-.53.164-.717.157-.134.344-.239.538-.321 3.232-1.426 6.36-3.068 9.451-4.786a7.008 7.008 0 0 1 1.755-.701c1.396-.329 2.441.179 3.038 1.478.441.97.598 2.016.784 3.053.306 1.658.598 3.323 1.113 4.935.156.5.336 1.001.627 1.449.149.224.306.433.552.552.224.112.411.075.523-.164.149-.314.201-.65.224-1.001.089-1.403-.075-2.792-.254-4.18a104.05 104.05 0 0 0-1.157-6.944c-.463-2.336-.366-4.666.03-6.995 1.097-6.383 2.941-12.565 5.061-18.679 1.061-3.061 2.091-6.137 3.136-9.206.082-.239.157-.478.239-.716-.187-.06-.261.014-.343.082-3.017 2.232-6.384 3.785-9.855 5.144-1.255.492-2.531.918-3.838 1.224-.522.119-.776.373-.918.903-1.911 7.048-4.091 14.021-6.226 21.002a44.736 44.736 0 0 1-1.621 4.457c-1.157 2.732-2.866 5.024-5.33 6.726-.567.389-1.12.799-1.605 1.284-.448.456-.829.956-1.053 1.568-.164.456-.104.545.381.605.657.082 1.299.224 1.911.478 1.493.619 2.292 1.724 2.3 3.359.007 1.105.007 2.218 0 3.323a66.087 66.087 0 0 1-.657 8.832c-.09.627-.224 1.246-.493 1.821-.59 1.24-1.837 1.329-2.613.194-.306-.44-.448-.948-.56-1.47-.373-1.71-.478-3.45-.59-5.182a193.891 193.891 0 0 0-.844-9.294c-.059-.56-.067-.575-.634-.523-1.628.157-3.233.478-4.845.746-3.472.575-6.966.769-10.482.635-1.479-.06-2.949-.127-4.428-.172-2.613-.089-5.196-.455-7.779-.866-3.591-.567-7.19-1.134-10.72-2.001-3.711-.903-7.4-1.918-10.983-3.255-.717-.268-.62-.365-1 .381-1.105 2.188-2.173 4.398-3.263 6.592a55.436 55.436 0 0 1-2.255 4.084c-.425.702-.873 1.389-1.478 1.949-.537.5-1.15.888-1.926.552-.799-.351-.97-1.052-.948-1.836.022-.934.246-1.829.545-2.703.97-2.844 2.15-5.614 3.27-8.399.47-1.172.948-2.344 1.366-3.539.806-2.314.829-4.643.269-7.01-.605-2.516-1.47-4.95-2.218-7.421-.948-3.158-1.747-6.353-2.202-9.623a40.568 40.568 0 0 1-.366-4.256c-.067-2.061-.492-4.009-1.403-5.876-.807-1.657-1.605-3.322-2.03-5.136a14.532 14.532 0 0 1-.277-5.181c.5-4.017 3.65-6.257 6.928-6.593a2.597 2.597 0 0 0 1.3-.477c4.098-2.882 8.622-4.734 13.58-5.503 2.142-.336 4.3-.47 6.465-.224 3.874.448 6.562 2.531 8.197 6.025 1.157 2.457 1.419 5.055 1.165 7.727-.202 1.777-.657 3.494-1.613 5.241Zm45.488 6.451c.269.037.441-.03.62-.075 1.329-.343 2.605-.836 3.875-1.359 3.919-1.612 7.682-3.486 10.691-6.599 1.276-1.329 2.344-2.785 3.061-4.48 1.328-3.158.238-6.667-2.628-8.548-1.404-.926-2.927-1.605-4.584-1.859-2.621-.396-5.256-.329-7.884.045-2.86.403-5.503 1.426-8.026 2.784-4.464 2.397-7.854 5.816-9.87 10.527-1.187 2.777-2.008 5.659-2.65 8.601-.993 4.561-1.971 9.123-3.307 13.595-.56 1.874-1.24 3.703-2.128 5.442-2.008 3.92-5.129 6.429-9.467 7.347-1.657.351-3.344.47-5.032.493a72.47 72.47 0 0 1-15.013-1.389c-2.546-.508-5.01-1.277-7.294-2.516-2.964-1.613-5.182-3.89-6.137-7.205-.583-2-.941-4.061-1.038-6.151-.157-3.45-.373-6.899-.336-10.363 0-.172.067-.366-.12-.545-.216 0-.35.179-.522.284-.56.351-1.165.612-1.83.717-1.686.253-3.202-.217-4.538-1.202-4.764-3.494-5.197-10.273-2.36-14.312.097-.135.277-.239.202-.53-1.71.739-2.934 1.881-3.45 3.673-.522 1.814-.447 3.651-.066 5.48.365 1.776 1.134 3.397 1.933 5.002 1.068 2.15 1.553 4.412 1.613 6.786a35.09 35.09 0 0 0 .403 4.33c.478 3.158 1.262 6.249 2.195 9.303.769 2.523 1.68 5.002 2.217 7.585.299 1.426.463 2.859.306 4.323-.186 1.754-.754 3.389-1.388 5.009-1.15 2.919-2.322 5.823-3.48 8.743-.343.858-.634 1.732-.806 2.642-.067.366-.164.74-.022 1.135.358-.142.5-.41.68-.634.59-.747 1.052-1.583 1.522-2.404 1.426-2.501 2.62-5.114 3.89-7.698.38-.783.784-1.552 1.202-2.314.426-.769.784-.873 1.635-.56.545.202 1.09.403 1.635.582 2.934.963 5.89 1.83 8.892 2.531 7.376 1.717 14.82 3.054 22.427 3.255 3.039.083 6.07.135 9.086-.253 2.486-.321 4.95-.74 7.428-1.098.292-.045.396-.179.448-.448.224-1.247.926-2.217 1.822-3.076.56-.53 1.172-.985 1.792-1.433 1.851-1.359 3.203-3.121 4.166-5.189.739-1.583 1.321-3.218 1.829-4.883 1.844-6.047 3.74-12.087 5.442-18.179.247-.888.501-1.769.754-2.672-.418-.135-.776-.023-1.134.022-1.449.187-2.905.276-4.331-.09-3.523-.91-5.42-2.911-5.83-6.084-.344-2.68-.045-5.338 1.149-7.802 1.292-2.68 3.36-4.345 6.451-4.532 4.233-.254 6.331 2.307 6.98 5.092.179.769.247 1.56.262 2.352.052 2.583-.486 5.084-1.083 7.57-.112.418-.276.784-.254 1.232Zm-18.381-3.457a25.065 25.065 0 0 0-.821-.186c-2.613-.508-5.241-.919-7.869-1.322-6.122-.941-12.236-.896-18.35.06-.366.06-.62.194-.844.5a28.574 28.574 0 0 1-6.107 6.04c-1.912 1.381-3.92 2.576-6.167 3.322-.657.217-1.329.329-2.023.284-1.419-.097-2.173-1.172-1.77-2.539.135-.462.374-.873.665-1.254.597-.784 1.314-1.433 2.105-2.016 3.405-2.493 7.22-4.121 11.274-5.203.746-.202 1.164-.575 1.508-1.217 1.194-2.21 1.456-4.599 1.41-7.055a11.582 11.582 0 0 0-1.12-4.816c-1.298-2.725-3.344-4.502-6.382-4.994-1.546-.254-3.099-.232-4.652-.09-4.897.433-9.421 1.949-13.572 4.592-.142.089-.321.141-.374.328.053.045.067.075.09.082.172.067.343.127.515.194 1.859.709 3.367 1.882 4.42 3.554 1.911 3.031 2.404 6.286 1.172 9.683-.366 1.008-.426 1.986-.41 3.016.03 3.166.178 6.324.29 9.489.075 2.113.351 4.196.762 6.272.635 3.217 2.471 5.539 5.24 7.174a19.84 19.84 0 0 0 4.95 2.053c3.196.844 6.451 1.344 9.736 1.635 3.472.314 6.951.448 10.422.097 4.741-.478 8.19-2.814 10.281-7.122a31.488 31.488 0 0 0 1.806-4.636c1.553-5.211 2.621-10.542 3.815-15.925Zm18.217-4.853c.03-.739-.06-1.478-.194-2.202-.314-1.74-1.165-3.136-2.837-3.822-1.725-.71-4.756-.665-6.548 1.411-.642.746-1.194 1.537-1.538 2.463-.694 1.829-.933 3.741-.836 5.667.15 2.979 1.747 4.95 5.204 5.622 1.613.313 3.195.007 4.785-.217.321-.045.426-.261.493-.538.157-.612.321-1.224.463-1.836.523-2.158.948-4.323 1.008-6.548Zm-65.99-.657c-.008-1.776-.426-3.337-1.225-4.8-1.164-2.113-2.911-3.419-5.293-3.89-.552-.112-.94.023-1.351.403-2.479 2.307-3.12 5.182-2.508 8.384.403 2.113 1.485 3.868 3.232 5.182a4.906 4.906 0 0 0 2.553.978c1.606.134 2.71-.702 3.472-2.038.747-1.344 1.06-2.808 1.12-4.219Zm17.597 4.913c-.097-.075-.202-.052-.299-.023-3.613 1.083-7.01 2.614-10.049 4.876a8.053 8.053 0 0 0-1.478 1.418 2.91 2.91 0 0 0-.485.814c-.157.448-.038.649.433.709.209.023.418 0 .627-.03.687-.089 1.329-.343 1.956-.619 3.554-1.583 6.555-3.898 9.116-6.817.074-.097.171-.186.179-.328Zm34.066 59.136c.284-.567.314-1.142.396-1.709.373-2.561.478-5.137.582-7.72.052-1.239.06-2.479.067-3.71 0-.419-.007-.852-.365-1.165-.538-.478-1.143-.844-1.859-.986-.538-.104-.59-.067-.523.493.373 3.352.657 6.712.888 10.071.082 1.232.18 2.472.426 3.689.067.343.09.724.388 1.037Zm-96.129-67.311c-.165-.687-.627-1.135-1.202-1.478-.5-.306-1.068-.433-1.643-.545-1.321-.254-2.665-.336-4.009-.441-2.941-.231-5.89-.425-8.832-.664-1.21-.097-2.411-.262-3.576-.627-.896-.277-1.71-.695-2.411-1.314-1.15-1.008-1.509-2.233-1.038-3.711.545-1.732 1.687-2.956 3.188-3.882 2.224-1.381 4.666-2.173 7.226-2.673 3.83-.746 7.698-.866 11.58-.851 5.913.022 11.729.754 17.44 2.285 1.404.373 2.785.806 4.069 1.508.605.328 1.187.694 1.702 1.149 2.113 1.852 2.419 4.808.694 7.041-.82 1.06-1.881 1.836-3.038 2.493-1.717.971-3.599 1.501-5.51 1.889-3.904.799-7.861 1.232-11.848 1.411-.082 0-.157.008-.239.008-.329-.023-.478.082-.418.455.067.44.067.896.112 1.336.216 2.136.03 4.271-.105 6.398-.149 2.263-.32 4.525-.44 6.787-.269 5.189-.239 10.385-.284 15.581 0 .239.008.478-.03.709-.074.411-.41.68-.776.65-.351-.023-.597-.269-.665-.672-.022-.127-.022-.261-.022-.396.06-5.114-.022-10.235.239-15.349.142-2.74.373-5.473.538-8.213.126-2.24.208-4.479-.068-6.719-.045-.336-.074-.597-.53-.612-2.292-.045-4.584-.075-6.86.351-2.36.448-4.241 1.679-5.772 3.486-1.732 2.053-2.994 4.398-4.158 6.794-1.986 4.076-3.599 8.324-5.48 12.445-.859 1.897-1.673 3.815-2.509 5.719-.194.448-.492.612-.85.493-.337-.112-.523-.485-.419-.918.075-.306.21-.598.321-.889 1.59-4.076 3.464-8.033 5.144-12.079 1.105-2.658 2.3-5.271 3.658-7.802a29.675 29.675 0 0 1 2.792-4.308c2.255-2.897 5.22-4.427 8.87-4.703 1.5-.112 3.001-.187 4.502-.127.209.06.418.097.657-.015Zm-1.202-14.67c-5.002-.008-7.653.209-11.363.94-2.188.433-4.263 1.18-6.174 2.352-1.076.664-1.964 1.508-2.427 2.725-.485 1.262-.246 2.016.881 2.777.874.59 1.867.851 2.882 1.016 2.27.365 4.561.433 6.853.627 2.442.201 4.898.298 7.332.619 2.202.292 4.016 1.098 4.815 3.375.097.269.291.351.553.336.261-.015.53-.015.791-.022 2.613-.068 5.204-.389 7.795-.732 2.172-.291 4.322-.687 6.405-1.374 1.702-.56 3.255-1.374 4.51-2.68 1.075-1.127 1.433-2.441.903-3.935-.336-.94-1.053-1.56-1.874-2.068-1.195-.746-2.509-1.216-3.86-1.59a66.2 66.2 0 0 0-18.022-2.366Z"/>
    <path d="M90.275 166.673c.015.455-.18.754-.508.851-.343.097-.664-.037-.858-.396a2.383 2.383 0 0 1-.18-.522c-1.724-6.607-3.703-13.14-5.353-19.77-.567-2.277-1.112-4.561-1.657-6.838-.022-.105-.052-.209-.06-.314-.03-.425.15-.724.485-.791.366-.075.62.104.762.418.097.216.15.448.21.679 1.492 5.465 2.829 10.975 4.389 16.425.91 3.195 1.754 6.406 2.628 9.608.052.239.097.471.142.65ZM162.387 38.15c-.008.09-.023.171-.008.239.396 1.866.456 3.762.56 5.659.135 2.47-.119 4.897-.515 7.316-.321 1.956-1.09 3.74-2.486 5.204-.127.134-.239.29-.388.395-1.269.889-2.606 1.553-4.196 1.673-2.449.179-4.756-.291-7.018-1.217-2.77-1.142-5.33-2.643-7.764-4.375-.814-.575-1.523-1.292-2.3-1.964-.455.217-.836.545-1.217.874-1.037.896-2.172 1.665-3.27 2.479-1.269.94-2.516 1.903-3.852 2.77-.97.627-1.963 1.231-2.882 1.94-.209.165-.44.284-.724.284-.575 0-.859-.448-.62-.97.12-.262.336-.396.568-.53 1.53-.934 2.971-2.001 4.367-3.114.74-.59 1.553-1.082 2.315-1.65 1.284-.97 2.493-2.03 3.837-2.919.105-.074.202-.171.291-.261.127-.127.157-.239.015-.403-.597-.717-.948-1.568-1.284-2.434-.53-1.359-.448-2.695.06-4.01.41-1.067 1.045-2 1.851-2.821 1.262-1.3 2.755-2.285 4.338-3.128 1.299-.695 2.658-1.27 4.002-1.874 1.328-.598 2.725-.97 4.091-1.434.739-.254 1.545-.328 2.344-.134 1.112.276 1.59 1.097 1.277 2.202-.306 1.075-1.038 1.89-1.71 2.725-.485.62-1.06 1.172-1.62 1.717-1.516 1.471-3.031 2.927-4.629 4.308a1096.577 1096.577 0 0 1-5.405 4.621c-.276.24-.59.441-.903.68 1.134 1.269 2.471 2.24 3.889 3.09.993.598 1.979 1.203 3.016 1.74 1.65.844 3.353 1.538 5.144 2.016 1.635.433 3.278.485 4.92.03 1.673-.463 2.763-1.575 3.517-3.076.672-1.336.985-2.785 1.149-4.256.299-2.65.418-5.3.083-7.966-.127-.992-.15-2-.366-2.978-.097-.463-.224-.919-.321-1.382-.045-.239-.202-.358-.389-.47-1.157-.687-2.239-1.478-3.329-2.27a11.853 11.853 0 0 1-2.18-2.053c-1.359-1.687-1.232-3.606.44-5.144 1.561-1.44 3.382-2.03 5.465-1.388 1.672.515 2.867 1.56 3.248 3.337.186.888.059 1.777-.194 2.658-.329 1.157-.919 2.18-1.501 3.21-.396.702-.403.702.306 1.142 1.904 1.18 3.912 2.188 5.883 3.24 1.77.941 3.561 1.837 5.308 2.815 3.315 1.844 6.608 3.74 9.915 5.592 3.173 1.777 6.368 3.509 9.541 5.293 1.583.896 3.136 1.844 4.681 2.793 3.972 2.448 8.018 4.778 12.184 6.883 2.964 1.5 6.018 2.814 9.206 3.77 1.493.448 1.455.583 1.545-1.112.082-1.56.493-3.061 1.501-4.256 1.373-1.635 3.665-1.829 5.129.164 2.202 2.994-.038 6.242-2.412 6.936-.799.232-1.583.388-2.404.381-.38-.007-.515.134-.5.508.052 1.396.082 2.792.12 4.188.007.187.037.366.037.552.022 2.95.022 5.906.074 8.855.068 3.665.075 7.331.12 10.99.015 1.291.007 2.583.037 3.867.045 2.105.008 4.218.135 6.323.097 1.688.03 3.375.149 5.055.127 1.687.045 3.374.157 5.054.104 1.508.007 3.001 0 4.502-.008 2.135-.135 4.27-.142 6.398 0 1.896-.164 3.793-.149 5.681.022 1.927-.157 3.845-.157 5.764 0 1.426-.157 2.837-.187 4.255-.074 2.823-.366 5.63-.59 8.437-.164 2.098-.545 4.181-.985 6.249-.254 1.194-.515 1.037.821 1.403 2.247.612 4.412 1.434 6.383 2.695.844.538 1.65 1.135 2.442 1.747 1.209.941 2.389 1.912 3.471 2.994.859.851 1.673 1.77 2.128 2.919.336.851.119 1.195-.769 1.426-1.351.351-2.732.538-4.114.739-3.688.53-7.398.695-11.101.963-.575.045-1.157.053-1.74.068-2.292.067-4.584.171-6.876.224-1.769.037-3.524-.105-5.286-.142-2.837-.06-5.599-.642-8.391-1.001a3.646 3.646 0 0 1-1.21-.358c-.343-.172-.477-.493-.388-.859.09-.35.329-.537.687-.545.209 0 .426.023.627.068 3.323.784 6.712 1.097 10.109 1.246 3.688.157 7.376.008 11.064-.224.53-.029 1.053-.059 1.583-.067 2.135-.015 4.263-.231 6.383-.433 2.255-.216 4.524-.313 6.757-.746.298-.06.604-.127.97-.209-.336-.613-.694-1.128-1.135-1.576-2.321-2.411-4.927-4.442-7.921-5.957-1.463-.739-3.008-1.262-4.591-1.68-.471-.12-.582.06-.724.425-.545 1.404-1.18 2.755-2.091 3.972a15.048 15.048 0 0 1-3.725 3.487c-1.277.843-2.71 1.179-4.159 1.366-1.485.194-2.926-.217-4.128-1.075-1.172-.844-1.799-2.046-1.449-3.576.187-.807.486-1.561.993-2.218.799-1.03 1.725-1.881 2.882-2.538 2.651-1.516 5.51-2.031 8.511-1.956.553.015 1.105.105 1.65.157.612.06.62.06.777-.568.328-1.306.53-2.628.679-3.971.187-1.755.508-3.502.59-5.264.119-2.523.425-5.039.433-7.57 0-1.314.201-2.635.179-3.949-.03-2.21.224-4.42.134-6.63-.022-.657.067-1.314.09-1.979.067-2.53.149-5.061.179-7.592.03-1.926.075-3.853-.037-5.771-.09-1.688-.015-3.375-.15-5.055-.126-1.635-.059-3.27-.141-4.897-.18-3.48-.12-6.958-.18-10.43-.029-1.74.053-3.479-.015-5.218-.134-3.48-.059-6.959-.156-10.438-.075-2.583.007-5.166-.09-7.742-.015-.47-.164-.634-.597-.724-3.352-.709-6.451-2.098-9.534-3.546-3.106-1.463-6.085-3.15-9.041-4.883-2.867-1.68-5.689-3.426-8.563-5.091-2.419-1.396-4.883-2.718-7.324-4.077a911.34 911.34 0 0 1-5.928-3.33c-3.778-2.15-7.555-4.307-11.423-6.3-1.784-.919-3.538-1.882-5.308-2.808-.149-.082-.269-.194-.455-.171Zm-23.891 10.676c.15-.105.247-.15.321-.217 1.329-1.157 2.703-2.262 4.054-3.404 1.508-1.277 2.957-2.628 4.435-3.927a36.105 36.105 0 0 0 3.3-3.285c.575-.65 1.127-1.329 1.523-2.105.261-.508.157-.687-.403-.657a7.69 7.69 0 0 0-2.016.373c-2.023.68-3.979 1.5-5.913 2.419-1.978.933-3.755 2.135-5.271 3.703-.806.843-1.396 1.821-1.463 3.068-.067 1.523.41 2.83 1.433 4.032Zm79.869 108.963c-2.098-.366-4.061-.374-6.047.134-1.493.381-2.942.859-4.174 1.792-1.052.799-2 1.717-2.351 3.083-.276 1.083.157 2.001 1.172 2.449 2.74 1.224 5.099.291 7.279-1.351 1.008-.762 1.807-1.762 2.516-2.822.679-1.016 1.135-2.121 1.605-3.285ZM162.394 30.37c-.082-1.351-.649-2.47-1.956-2.971-1.097-.418-2.113-.224-3.143.164-.881.336-1.463.986-1.866 1.83-.247.522-.232 1.03.074 1.507.299.463.605.919 1.008 1.307 1.068 1.023 2.277 1.859 3.539 2.628.336.201.53.142.694-.172.493-.926 1.068-1.814 1.352-2.844.141-.478.276-.963.298-1.449Zm60.51 36.74c.18-.023.471-.053.754-.083 1.24-.127 2.091-.82 2.666-1.874.731-1.329.164-2.964-1.172-3.538-.344-.15-.65-.142-.993-.008-.672.269-1.001.836-1.277 1.441-.485 1.068-.687 2.21-.769 3.375-.045.671-.007.701.791.686Z"/>
    <path d="M138.063 67.766c-.022-.41.097-.62.194-.828 1.449-3.039 2.927-6.063 4.562-9.004.075-.134.142-.284.231-.41.209-.3.493-.396.829-.247.306.134.515.538.396.851a15.279 15.279 0 0 1-.695 1.5c-1.284 2.45-2.426 4.958-3.621 7.452-.171.35-.306.739-.604 1.007-.239.224-.523.351-.866.217a.641.641 0 0 1-.426-.538Zm12.363 2.165c.224-3.045.448-5.965 1.053-8.831.03-.127.037-.262.082-.389.15-.44.456-.65.814-.575.366.083.545.389.485.859-.082.597-.231 1.195-.268 1.8-.15 2.366-.523 4.71-.628 7.084-.007.157 0 .321-.044.47-.112.389-.411.538-.784.546-.351.007-.642-.254-.71-.627-.022-.15 0-.307 0-.337Zm-48.363 37.882c-.858-1.165-1.844-2.188-3.016-3.016-3.262-2.307-6.786-4.032-10.758-4.77-2.912-.538-5.809-.725-8.698.096a2.3 2.3 0 0 1-.537.112c-.314.008-.575-.134-.687-.433-.112-.299-.038-.575.194-.799.18-.171.396-.254.627-.313 1.978-.53 3.98-.762 6.032-.598 5.346.418 10.154 2.255 14.514 5.346 1.568 1.112 2.83 2.516 3.994 4.031.082.105.157.217.217.336.365.725.097 1.33-.695 1.486a28.19 28.19 0 0 1-2.113.306c-3 .344-6.002.306-9.003.03-2.778-.254-5.473-.866-8.026-1.978-3.36-1.464-6.197-3.584-8.25-6.675-.171-.261-.336-.425-.687-.403-1.455.09-2.866.396-4.263.814-.336.104-.336.35-.358.612a243.264 243.264 0 0 1-.433 4.01 24.328 24.328 0 0 1-.276 1.798c-.067.366.022.515.425.545 1.606.112 3.188.389 4.756.77.642.156 1.27.35 1.874.619 2.135.963 3.292 2.56 3.248 4.95-.023 1.456-.262 2.89-.53 4.315-.448 2.382-.874 4.77-1.59 7.093-.255.806-.538 1.597-.979 2.329-.754 1.232-1.836 2.008-3.292 2.031-3.427.052-6.861.089-10.266-.448a7.458 7.458 0 0 1-1.821-.523c-1.18-.5-1.904-1.374-2.173-2.628-.254-1.217-.373-2.449-.545-3.673-.44-3.158-.85-6.324-1.045-9.511-.022-.366-.045-.74-.022-1.105.03-.478.276-.747.65-.74.365 0 .619.254.656.74.112 1.5.276 2.993.47 4.486.404 3.061.777 6.122 1.232 9.168.165 1.105.762 1.755 1.8 2.054.866.253 1.747.403 2.643.477 2.523.224 5.061.18 7.592.232.105 0 .21-.008.314 0 1.351.03 2.24-.627 2.777-1.829.627-1.404.993-2.89 1.314-4.39.485-2.27.97-4.54 1.224-6.846.045-.396.083-.792.083-1.18.014-1.777-.747-2.934-2.382-3.643-1-.433-2.06-.627-3.12-.851-1.038-.217-2.091-.291-3.136-.433-.426-.06-.545.12-.628.485a15.926 15.926 0 0 1-.403 1.53 4.9 4.9 0 0 1-1.008 1.777c-.649.747-1.448 1.21-2.456 1.292-.933.082-1.851.007-2.732-.276-.822-.27-1.516-.74-1.926-1.538-.568-1.098-.336-2.277.612-3.069.575-.478 1.24-.799 1.94-1.03 1.412-.463 2.845-.791 4.339-.784.335 0 .537-.067.597-.448.269-1.77.515-3.546.65-5.338.007-.104-.008-.209-.023-.336-.343-.067-.62.112-.91.202-2.091.657-4.204 1.194-6.407 1.366-2.045.157-4.053-.06-6.062-.388-2.956-.493-5.793-1.344-8.488-2.68-2.322-1.15-4.323-2.718-6.122-4.57a48.91 48.91 0 0 1-5.077-6.159c-.284-.41-.567-.828-.724-1.314-.284-.866.104-1.493 1.015-1.553 3.823-.231 7.645-.343 11.46.075 2.792.306 5.51.844 8.123 1.934 4.143 1.732 7.488 4.382 9.862 8.212.067.112.15.217.21.336.193.388.462.508.903.396.612-.15 1.239-.262 1.866-.344.433-.052.567-.254.552-.68-.067-1.575-.403-3.075-1.157-4.479-.799-1.47-1.851-2.755-2.911-4.031-2.292-2.77-4.338-5.704-6.197-8.78-2.105-3.494-3.367-7.242-3.852-11.288-.321-2.65-.59-5.293-.605-7.966 0-.262-.022-.53.067-.784.202-.568.74-.784 1.27-.5.134.074.26.179.38.276 3.785 3.188 6.63 7.055 8.466 11.662 1.075 2.687 1.725 5.472 2.15 8.324.045.313.06.627.247.993.239-1.038.448-2.008.687-2.972 1.306-5.21 3.501-9.989 6.98-14.132a21.237 21.237 0 0 1 5.876-4.876c.134-.074.276-.156.418-.223.739-.329 1.306-.112 1.575.65.254.7.321 1.44.433 2.164.71 4.748.045 9.302-1.986 13.655-1 2.15-2.352 4.054-4.001 5.756-1.135 1.18-2.352 2.27-3.562 3.375-1.105 1.015-2.224 2.023-3.158 3.217-.194.247-.358.523-.552.777-.18.246-.164.455 0 .717.731 1.157 1.44 2.329 2.165 3.501.052.082.09.194.246.217.217-.083.284-.329.403-.523 2.136-3.48 4.868-6.42 8.034-8.981 3.292-2.666 7.092-4.219 11.213-5.032 2.561-.508 5.16-.777 7.75-1.09 1.784-.217 3.546-.523 5.308-.851.18-.038.366-.09.545-.09.769 0 1.142.627.769 1.3-.142.253-.329.477-.5.708-.717.978-1.36 2.016-1.964 3.061-3.748 6.488-9.242 10.855-16.23 13.439-4.562 1.687-9.273 2.83-13.991 3.95-.77.178-1.546.343-2.315.522-.44.104-.716.694-.522 1.097.09.194.269.127.418.097.485-.12.97-.254 1.456-.358.978-.217 1.978-.299 2.979-.366.582-.045 1.007.157 1.313.68 1.27 2.202 3.114 3.837 5.234 5.18 2.747 1.748 5.786 2.666 8.974 3.091 3.494.463 6.995.5 10.49.03.193-.037.365-.007.56-.216Zm1.755-30.319c-.21-.104-.418-.03-.613.008-1.403.261-2.814.418-4.225.605-2.479.328-4.98.567-7.429 1.097-3.576.776-6.89 2.15-9.78 4.435-3.195 2.523-5.92 5.472-8.033 8.966-.216.358-.425.732-.664 1.075-.59.859-1.307.851-1.86-.022-.126-.202-.238-.41-.365-.612-.829-1.344-1.635-2.71-2.509-4.032-.44-.664-.44-1.202-.015-1.874.851-1.329 1.904-2.456 3.039-3.524 1.344-1.269 2.732-2.486 4.039-3.785 5.01-4.995 6.928-11.064 6.181-18.037-.074-.672-.097-1.359-.343-2.008-.306 0-.508.194-.724.328a19.424 19.424 0 0 0-4.442 3.785c-3.352 3.867-5.458 8.362-6.78 13.267-.649 2.396-1 4.853-1.41 7.294-.045.291-.105.575-.24.836-.156.306-.41.478-.768.448-.321-.022-.538-.209-.642-.508a3.414 3.414 0 0 1-.12-.455c-.156-.933-.328-1.867-.47-2.807-.35-2.322-.65-4.651-1.27-6.921-1.41-5.144-3.851-9.683-7.853-13.296-.142-.127-.239-.374-.53-.277 0 .366-.015.732 0 1.098.12 2.53.425 5.047.85 7.54.412 2.412 1.158 4.704 2.323 6.861a62.262 62.262 0 0 0 3.986 6.458c1.486 2.09 3.166 4.017 4.719 6.047 1.299 1.695 2.307 3.532 2.62 5.682.068.44.09.888.142 1.336.075.62.082.627.665.5a75.27 75.27 0 0 0 1.77-.41c4.718-1.12 9.436-2.255 13.99-3.95 5.256-1.963 9.735-5.002 13.184-9.474 1.337-1.74 2.382-3.673 3.547-5.524.045-.03.022-.09.03-.15ZM36.909 88.402c.045.373.217.545.351.731a50.378 50.378 0 0 0 4.614 5.615 21.66 21.66 0 0 0 8.511 5.584c2.27.821 4.599 1.337 6.98 1.643 2.18.283 4.36.276 6.533-.165 1.553-.313 3.061-.776 4.562-1.261.68-.217.68-.217.694-.926 0-.194.082-.418-.12-.59-.62.105-1.239.21-1.858.329-1.56.283-1.785.186-2.658-1.165-.097-.157-.194-.314-.299-.463-.873-1.291-1.814-2.523-2.971-3.584-2.598-2.396-5.674-3.904-9.049-4.808-2.941-.783-5.972-.992-9.004-1.09-2.082-.074-4.158.105-6.286.15Zm27.937 24.988c1.247.15 2.016-.553 2.539-1.635.216-.456.35-.94.455-1.426.127-.582.075-.65-.523-.627-1.463.06-2.859.403-4.195 1a3.113 3.113 0 0 0-.605.366c-.597.463-.635 1.09-.105 1.627.27.27.598.426.956.53.47.128.94.187 1.478.165Z"/>
  </g>
</svg>
