<svg xmlns="http://www.w3.org/2000/svg" fill="none" viewBox="0 0 446 432">
  <path fill="#F5F5F5" d="M445.5 216c0 119.002-99.601 215.5-222.5 215.5S.5 335.002.5 216 100.101.5 223 .5 445.5 96.998 445.5 216Z"/>
  <path fill="#242424" d="M114.879 222.75c14.928 0 27.03-12.088 27.03-27s-12.102-27-27.03-27c-14.929 0-27.03 12.088-27.03 27s12.101 27 27.03 27Zm216.242 0c14.929 0 27.031-12.088 27.031-27s-12.102-27-27.031-27c-14.928 0-27.03 12.088-27.03 27s12.102 27 27.03 27Zm-71.984 74.025c-12.35 0-22.414-9-24.015-20.925-.229-1.8-1.83-3.375-3.659-3.375h-1.601c-1.83 0-3.431 1.35-3.66 3.375v.9c2.059 16.2 16.01 28.8 32.935 28.8 16.926 0 30.877-12.6 32.936-28.8.229-2.25-1.372-4.275-3.66-4.275h-1.601c-1.829 0-3.43 1.35-3.659 3.375-1.601 11.925-11.665 20.925-24.016 20.925Z"/>
  <path fill="#242424" d="M202.187 296.775c-12.351 0-22.415-9-24.016-20.925-.228-1.8-1.829-3.375-3.659-3.375h-1.373c-1.829 0-3.659 1.575-3.659 3.375v.9c2.058 16.2 16.01 28.8 32.935 28.8 16.926 0 30.877-12.6 32.936-28.8.229-2.25-1.373-4.275-3.66-4.275h-1.372c-1.83 0-3.431 1.35-3.66 3.375-2.058 11.925-12.122 20.925-24.472 20.925Z"/>
</svg>
